<svg id="mermaid-1624465395736" width="100%" xmlns="http://www.w3.org/2000/svg" xmlns:xlink="http://www.w3.org/1999/xlink" height="376" style="max-width: 1721.37109375px;" viewBox="-20 -20 1721.37109375 376"><style>#mermaid-1624465395736{font-family:"trebuchet ms",verdana,arial,sans-serif;font-size:16px;fill:#333;}#mermaid-1624465395736 .error-icon{fill:#552222;}#mermaid-1624465395736 .error-text{fill:#552222;stroke:#552222;}#mermaid-1624465395736 .edge-thickness-normal{stroke-width:2px;}#mermaid-1624465395736 .edge-thickness-thick{stroke-width:3.5px;}#mermaid-1624465395736 .edge-pattern-solid{stroke-dasharray:0;}#mermaid-1624465395736 .edge-pattern-dashed{stroke-dasharray:3;}#mermaid-1624465395736 .edge-pattern-dotted{stroke-dasharray:2;}#mermaid-1624465395736 .marker{fill:#333333;stroke:#333333;}#mermaid-1624465395736 .marker.cross{stroke:#333333;}#mermaid-1624465395736 svg{font-family:"trebuchet ms",verdana,arial,sans-serif;font-size:16px;}#mermaid-1624465395736 g.classGroup text{fill:#9370DB;fill:#131300;stroke:none;font-family:"trebuchet ms",verdana,arial,sans-serif;font-size:10px;}#mermaid-1624465395736 g.classGroup text .title{font-weight:bolder;}#mermaid-1624465395736 .classTitle{font-weight:bolder;}#mermaid-1624465395736 .node rect,#mermaid-1624465395736 .node circle,#mermaid-1624465395736 .node ellipse,#mermaid-1624465395736 .node polygon,#mermaid-1624465395736 .node path{fill:#ECECFF;stroke:#9370DB;stroke-width:1px;}#mermaid-1624465395736 .divider{stroke:#9370DB;stroke:1;}#mermaid-1624465395736 g.clickable{cursor:pointer;}#mermaid-1624465395736 g.classGroup rect{fill:#ECECFF;stroke:#9370DB;}#mermaid-1624465395736 g.classGroup line{stroke:#9370DB;stroke-width:1;}#mermaid-1624465395736 .classLabel .box{stroke:none;stroke-width:0;fill:#ECECFF;opacity:0.5;}#mermaid-1624465395736 .classLabel .label{fill:#9370DB;font-size:10px;}#mermaid-1624465395736 .relation{stroke:#333333;stroke-width:1;fill:none;}#mermaid-1624465395736 .dashed-line{stroke-dasharray:3;}#mermaid-1624465395736 #compositionStart,#mermaid-1624465395736 .composition{fill:#333333 !important;stroke:#333333 !important;stroke-width:1;}#mermaid-1624465395736 #compositionEnd,#mermaid-1624465395736 .composition{fill:#333333 !important;stroke:#333333 !important;stroke-width:1;}#mermaid-1624465395736 #dependencyStart,#mermaid-1624465395736 .dependency{fill:#333333 !important;stroke:#333333 !important;stroke-width:1;}#mermaid-1624465395736 #dependencyStart,#mermaid-1624465395736 .dependency{fill:#333333 !important;stroke:#333333 !important;stroke-width:1;}#mermaid-1624465395736 #extensionStart,#mermaid-1624465395736 .extension{fill:#333333 !important;stroke:#333333 !important;stroke-width:1;}#mermaid-1624465395736 #extensionEnd,#mermaid-1624465395736 .extension{fill:#333333 !important;stroke:#333333 !important;stroke-width:1;}#mermaid-1624465395736 #aggregationStart,#mermaid-1624465395736 .aggregation{fill:#ECECFF !important;stroke:#333333 !important;stroke-width:1;}#mermaid-1624465395736 #aggregationEnd,#mermaid-1624465395736 .aggregation{fill:#ECECFF !important;stroke:#333333 !important;stroke-width:1;}#mermaid-1624465395736 .edgeTerminals{font-size:11px;}#mermaid-1624465395736:root{--mermaid-font-family:"trebuchet ms",verdana,arial,sans-serif;}</style><g></g><defs><marker id="extensionStart" class="extension" refX="0" refY="7" markerWidth="190" markerHeight="240" orient="auto"><path d="M 1,7 L18,13 V 1 Z"></path></marker></defs><defs><marker id="extensionEnd" refX="19" refY="7" markerWidth="20" markerHeight="28" orient="auto"><path d="M 1,1 V 13 L18,7 Z"></path></marker></defs><defs><marker id="compositionStart" class="extension" refX="0" refY="7" markerWidth="190" markerHeight="240" orient="auto"><path d="M 18,7 L9,13 L1,7 L9,1 Z"></path></marker></defs><defs><marker id="compositionEnd" refX="19" refY="7" markerWidth="20" markerHeight="28" orient="auto"><path d="M 18,7 L9,13 L1,7 L9,1 Z"></path></marker></defs><defs><marker id="aggregationStart" class="extension" refX="0" refY="7" markerWidth="190" markerHeight="240" orient="auto"><path d="M 18,7 L9,13 L1,7 L9,1 Z"></path></marker></defs><defs><marker id="aggregationEnd" refX="19" refY="7" markerWidth="20" markerHeight="28" orient="auto"><path d="M 18,7 L9,13 L1,7 L9,1 Z"></path></marker></defs><defs><marker id="dependencyStart" class="extension" refX="0" refY="7" markerWidth="190" markerHeight="240" orient="auto"><path d="M 5,7 L9,13 L1,7 L9,1 Z"></path></marker></defs><defs><marker id="dependencyEnd" refX="19" refY="7" markerWidth="20" markerHeight="28" orient="auto"><path d="M 18,7 L9,13 L14,7 L9,1 Z"></path></marker></defs><g id="classid-ERC721URIStorage-0" class="classGroup" transform="translate(0,257 )"><rect x="0" y="0" width="102.703125" height="30" class=" "></rect><text y="15" x="0"><tspan class="title" x="5">ERC721URIStorage</tspan></text><line x1="0" y1="21" y2="21" x2="102.703125"></line><text x="5" y="31" fill="white" class="classText"></text><line x1="0" y1="26" y2="26" x2="102.703125"></line><text x="5" y="41" fill="white" class="classText"></text></g><g id="classid-Event-1" class="classGroup" transform="translate(1245.72265625,257 )"><rect x="0" y="0" width="37.90625" height="30" class=" "></rect><text y="15" x="0"><tspan class="title" x="5">Event</tspan></text><line x1="0" y1="21" y2="21" x2="37.90625"></line><text x="5" y="31" fill="white" class="classText"></text><line x1="0" y1="26" y2="26" x2="37.90625"></line><text x="5" y="41" fill="white" class="classText"></text></g><g id="classid-NFTLabStore-2" class="classGroup" transform="translate(7.609375,0 )"><rect x="0" y="0" width="636.71875" height="158" class=" "></rect><text y="15" x="0"><tspan class="title" x="286.75">NFTLabStore</tspan></text><line x1="0" y1="21" y2="21" x2="636.71875"></line><text x="5" y="31" fill="white" class="classText"><tspan x="5">-StorageMap&lt;UnsignedBigInteger, NFTLab&gt; nfts</tspan><tspan x="5" dy="10">-StorageMap&lt;String, UnsignedBigInteger&gt; hashToId</tspan><tspan x="5" dy="10">-StorageMap&lt;UnsignedBigInteger, StorageLinkedList&lt;NFTTransaction&gt;&gt; history</tspan></text><line x1="0" y1="57" y2="57" x2="636.71875"></line><text x="5" y="72" fill="white" class="classText"><tspan x="5">+NFTLabStore(String name, String symbol)</tspan><tspan x="5" dy="10">+mint(Contract artist, BigInteger artistId, String hash, String timestamp) : BigInteger</tspan><tspan x="5" dy="10">+transfer(BigInteger tokenId, Contract seller, BigInteger sellerId, Contract buyer, BigInteger buyerId, String price, String timestamp) : boolean</tspan><tspan x="5" dy="10">getTokenId(String hash) : BigInteger</tspan><tspan x="5" dy="10">+getHistory(BigInteger tokenId) : StorageLinkedList&lt;NFTTransaction&gt;</tspan><tspan x="5" dy="10">+getNFTByHash(String hash) : NFTLab</tspan><tspan x="5" dy="10">+getNFTById(BigInteger tokenId) : NFTLab</tspan><tspan x="5" dy="10">#baseURI() : String</tspan><tspan x="5" dy="10">-onlyOwner()</tspan></text></g><g id="classid-NFTLab-3" class="classGroup" transform="translate(152.703125,223 )"><rect x="0" y="0" width="346.53125" height="98" class=" "></rect><text y="15" x="0"><tspan class="title" x="154.65625">NFTLab</tspan></text><line x1="0" y1="21" y2="21" x2="346.53125"></line><text x="5" y="31" fill="white" class="classText"><tspan x="5">-Contract artist</tspan><tspan x="5" dy="10">-BigInteger artistId</tspan><tspan x="5" dy="10">-String hash</tspan><tspan x="5" dy="10">-String timestamp</tspan></text><line x1="0" y1="67" y2="67" x2="346.53125"></line><text x="5" y="82" fill="white" class="classText"><tspan x="5">+NFTLab(Contract artist, BigInteger artistId, String hash, String timestamp)</tspan><tspan x="5" dy="10">+equals(Object o) : boolean</tspan></text></g><g id="classid-NFTTransaction-4" class="classGroup" transform="translate(549.234375,208 )"><rect x="0" y="0" width="630.203125" height="128" class=" "></rect><text y="15" x="0"><tspan class="title" x="277.3125">NFTTransaction</tspan></text><line x1="0" y1="21" y2="21" x2="630.203125"></line><text x="5" y="31" fill="white" class="classText"><tspan x="5">-BigInteger tokenId</tspan><tspan x="5" dy="10">-Contract seller</tspan><tspan x="5" dy="10">-BigInteger sellerId</tspan><tspan x="5" dy="10">-Contract buyer</tspan><tspan x="5" dy="10">-BigInteger buyerId</tspan><tspan x="5" dy="10">-String price</tspan><tspan x="5" dy="10">-String timestamp</tspan></text><line x1="0" y1="97" y2="97" x2="630.203125"></line><text x="5" y="112" fill="white" class="classText"><tspan x="5">+NFTTransaction(BigInteger tokenId, Contract seller, BigInteger sellerId, Contract buyer, BigInteger buyerId, String price, String timestamp)</tspan><tspan x="5" dy="10">+equals(Object o) : boolean</tspan></text></g><g id="classid-Minted-5" class="classGroup" transform="translate(938.12109375,40 )"><rect x="0" y="0" width="256.484375" height="78" class=" "></rect><text y="15" x="0"><tspan class="title" x="112.1328125">Minted</tspan></text><line x1="0" y1="21" y2="21" x2="256.484375"></line><text x="5" y="31" fill="white" class="classText"><tspan x="5">+Contract artist</tspan><tspan x="5" dy="10">+String hash</tspan><tspan x="5" dy="10">+String timestamp</tspan></text><line x1="0" y1="57" y2="57" x2="256.484375"></line><text x="5" y="72" fill="white" class="classText"><tspan x="5">+Minted(Contract artist, String hash, String timestamp)</tspan></text></g><g id="classid-Transferred-6" class="classGroup" transform="translate(1244.60546875,30 )"><rect x="0" y="0" width="436.765625" height="98" class=" "></rect><text y="15" x="0"><tspan class="title" x="190.8671875">Transferred</tspan></text><line x1="0" y1="21" y2="21" x2="436.765625"></line><text x="5" y="31" fill="white" class="classText"><tspan x="5">+BigInteger tokenId</tspan><tspan x="5" dy="10">+Contract seller</tspan><tspan x="5" dy="10">+Contract buyer</tspan><tspan x="5" dy="10">+String price</tspan><tspan x="5" dy="10">+String timestamp</tspan></text><line x1="0" y1="77" y2="77" x2="436.765625"></line><text x="5" y="92" fill="white" class="classText"><tspan x="5">+Transferred(BigInteger tokenId, Contract seller, Contract buyer, String price, String timestamp)</tspan></text></g><path d="M117.36530949519232,158L106.36301832932695,162.16666666666666C95.36072716346155,166.33333333333334,73.35614483173077,174.66666666666666,62.35385366586539,191.16666666666666C51.3515625,207.66666666666666,51.3515625,232.33333333333334,51.3515625,244.66666666666666L51.3515625,257" id="edge0" class="relation" marker-end="url(#extensionEnd)"></path><path d="M325.96875,158L325.96875,162.16666666666666C325.96875,166.33333333333334,325.96875,174.66666666666666,325.96875,185.5C325.96875,196.33333333333334,325.96875,209.66666666666666,325.96875,216.33333333333334L325.96875,223" id="edge1" class="relation dashed-line" marker-end="url(#dependencyEnd)"></path><path d="M644.328125,140.49961544601007L680.99609375,147.58301287167504C717.6640625,154.66641029734004,791,168.83320514867003,827.66796875,180.08326924100166C864.3359375,191.33333333333334,864.3359375,199.66666666666666,864.3359375,203.83333333333334L864.3359375,208" id="edge2" class="relation dashed-line" marker-end="url(#dependencyEnd)"></path><path d="M1066.36328125,118L1066.36328125,128.83333333333334C1066.36328125,139.66666666666666,1066.36328125,161.33333333333334,1096.2565104166667,185.58234846097278C1126.1497395833333,209.83136358861225,1185.9361979166667,236.6627271772245,1215.8294270833333,250.07840897153062L1245.72265625,263.49409076583675" id="edge3" class="relation" marker-end="url(#extensionEnd)"></path><path d="M1462.98828125,128L1462.98828125,137.16666666666666C1462.98828125,146.33333333333334,1462.98828125,164.66666666666666,1433.0950520833333,187.24901512763947C1403.2018229166667,209.83136358861225,1343.4153645833333,236.6627271772245,1313.5221354166667,250.07840897153062L1283.62890625,263.49409076583675" id="edge4" class="relation" marker-end="url(#extensionEnd)"></path></svg>